{
	"asset":{
		"generator":"Khronos glTF Blender I/O v3.6.27",
		"version":"2.0"
	},
	"scene":0,
	"scenes":[
		{
			"name":"Scene",
			"nodes":[
				0
			]
		}
	],
	"nodes":[
		{
			"mesh":0,
			"name":"Circle"
		}
	],
	"materials":[
		{
			"doubleSided":true,
			"name":"grass",
			"pbrMetallicRoughness":{
				"baseColorFactor":[
					0.5571648478507996,
					0.6213094592094421,
					0.5051178932189941,
					1
				],
				"metallicFactor":0,
				"roughnessFactor":0.5
			}
		},
		{
			"doubleSided":true,
			"name":"asphalt01",
			"pbrMetallicRoughness":{
				"baseColorFactor":[
					0.800000011920929,
					0.800000011920929,
					0.800000011920929,
					1
				],
				"metallicFactor":0,
				"roughnessFactor":0.5
			}
		},
		{
			"doubleSided":true,
			"name":"beton",
			"pbrMetallicRoughness":{
				"baseColorFactor":[
					1,
					1,
					1,
					1
				],
				"metallicFactor":0,
				"roughnessFactor":0.5
			}
		},
		{
			"doubleSided":true,
			"name":"cobbles",
			"pbrMetallicRoughness":{
				"baseColorFactor":[
					1,
					1,
					1,
					1
				],
				"metallicFactor":0,
				"roughnessFactor":0.5
			}
		}
	],
	"meshes":[
		{
			"name":"Circle.001",
			"primitives":[
				{
					"attributes":{
						"POSITION":0,
						"NORMAL":1,
						"TEXCOORD_0":2
					},
					"indices":3,
					"material":0
				},
				{
					"attributes":{
						"POSITION":4,
						"NORMAL":5,
						"TEXCOORD_0":6
					},
					"indices":7,
					"material":1
				},
				{
					"attributes":{
						"POSITION":8,
						"NORMAL":9,
						"TEXCOORD_0":10
					},
					"indices":11,
					"material":2
				},
				{
					"attributes":{
						"POSITION":12,
						"NORMAL":13,
						"TEXCOORD_0":14
					},
					"indices":15,
					"material":3
				}
			]
		}
	],
	"accessors":[
		{
			"bufferView":0,
			"componentType":5126,
			"count":105,
			"max":[
				20.000001907348633,
				0.09671822935342789,
				20.0000057220459
			],
			"min":[
				-20,
				0.06025899201631546,
				-20
			],
			"type":"VEC3"
		},
		{
			"bufferView":1,
			"componentType":5126,
			"count":105,
			"type":"VEC3"
		},
		{
			"bufferView":2,
			"componentType":5126,
			"count":105,
			"type":"VEC2"
		},
		{
			"bufferView":3,
			"componentType":5123,
			"count":288,
			"type":"SCALAR"
		},
		{
			"bufferView":4,
			"componentType":5126,
			"count":128,
			"max":[
				13.530242919921875,
				-0.07858254760503769,
				13.53022575378418
			],
			"min":[
				-13.530211448669434,
				-0.07858263701200485,
				-13.530227661132812
			],
			"type":"VEC3"
		},
		{
			"bufferView":5,
			"componentType":5126,
			"count":128,
			"type":"VEC3"
		},
		{
			"bufferView":6,
			"componentType":5126,
			"count":128,
			"type":"VEC2"
		},
		{
			"bufferView":7,
			"componentType":5123,
			"count":384,
			"type":"SCALAR"
		},
		{
			"bufferView":8,
			"componentType":5126,
			"count":1736,
			"max":[
				20.000001907348633,
				1.284781575202942,
				20.0000057220459
			],
			"min":[
				-20,
				-0.07858263701200485,
				-20
			],
			"type":"VEC3"
		},
		{
			"bufferView":9,
			"componentType":5126,
			"count":1736,
			"type":"VEC3"
		},
		{
			"bufferView":10,
			"componentType":5126,
			"count":1736,
			"type":"VEC2"
		},
		{
			"bufferView":11,
			"componentType":5123,
			"count":2592,
			"type":"SCALAR"
		},
		{
			"bufferView":12,
			"componentType":5126,
			"count":472,
			"max":[
				20.000003814697266,
				-0.04616288095712662,
				20.0000057220459
			],
			"min":[
				-20.000001907348633,
				-0.07858263701200485,
				-20
			],
			"type":"VEC3"
		},
		{
			"bufferView":13,
			"componentType":5126,
			"count":472,
			"type":"VEC3"
		},
		{
			"bufferView":14,
			"componentType":5126,
			"count":472,
			"type":"VEC2"
		},
		{
			"bufferView":15,
			"componentType":5123,
			"count":1008,
			"type":"SCALAR"
		}
	],
	"bufferViews":[
		{
			"buffer":0,
			"byteLength":1260,
			"byteOffset":0,
			"target":34962
		},
		{
			"buffer":0,
			"byteLength":1260,
			"byteOffset":1260,
			"target":34962
		},
		{
			"buffer":0,
			"byteLength":840,
			"byteOffset":2520,
			"target":34962
		},
		{
			"buffer":0,
			"byteLength":576,
			"byteOffset":3360,
			"target":34963
		},
		{
			"buffer":0,
			"byteLength":1536,
			"byteOffset":3936,
			"target":34962
		},
		{
			"buffer":0,
			"byteLength":1536,
			"byteOffset":5472,
			"target":34962
		},
		{
			"buffer":0,
			"byteLength":1024,
			"byteOffset":7008,
			"target":34962
		},
		{
			"buffer":0,
			"byteLength":768,
			"byteOffset":8032,
			"target":34963
		},
		{
			"buffer":0,
			"byteLength":20832,
			"byteOffset":8800,
			"target":34962
		},
		{
			"buffer":0,
			"byteLength":20832,
			"byteOffset":29632,
			"target":34962
		},
		{
			"buffer":0,
			"byteLength":13888,
			"byteOffset":50464,
			"target":34962
		},
		{
			"buffer":0,
			"byteLength":5184,
			"byteOffset":64352,
			"target":34963
		},
		{
			"buffer":0,
			"byteLength":5664,
			"byteOffset":69536,
			"target":34962
		},
		{
			"buffer":0,
			"byteLength":5664,
			"byteOffset":75200,
			"target":34962
		},
		{
			"buffer":0,
			"byteLength":3776,
			"byteOffset":80864,
			"target":34962
		},
		{
			"buffer":0,
			"byteLength":2016,
			"byteOffset":84640,
			"target":34963
		}
	],
	"buffers":[
		{
			"byteLength":86656,
			"uri":"data:application/octet-stream;base64,"
		}
	]
}
